<svg version="1.2" xmlns="http://www.w3.org/2000/svg" viewBox="0 0 1000 1000" width="1000"
	height="1000">
	<title>logo open launch</title>
	<style>
		.s0 { fill: #2563eb }
		.s1 { fill: #ffffff }
	</style>
	<g id="BACKGROUND">
	</g>
	<g id="OBJECTS">
		<g id="&lt;Group&gt;">
			<path id="&lt;Path&gt;" fill-rule="evenodd" class="s0"
				d="m500.3 806.5c-169.4 0-306.3-136.9-306.3-306.2 0-169.4 136.9-306.3 306.3-306.3 169.3 0 306.2 136.9 306.2 306.3 0 169.3-136.9 306.2-306.2 306.2z" />
			<g id="&lt;Group&gt;">
				<path id="&lt;Path&gt;" class="s1"
					d="m572 560.3c-15.3 15.3-39.9 25.1-62.8 25.1-78.5 0-85.2-64.1-85.3-83.7-0.3-24.8 8.4-47.9 23.7-63.3 15-15.1 35.7-22.8 61.6-22.8 23.4 0 44.7 8.2 59.9 23.2l15.1 14.7 70.3-67.9-15.8-15.6c-35.7-35.2-80.5-53.8-129.5-53.8-54.3 0-100.7 17.8-134.2 51.6-33.6 33.7-52.7 82.6-52.4 134.2 0.3 48.4 16.2 92.7 44.8 124.8 33.3 37.4 82.3 57.2 141.8 57.2 52.5 0 98.6-18.1 133.5-52.5l15.5-15.3-70.7-71.4z" />
			</g>
		</g>
	</g>
</svg>